<svg width="32" height="32" viewBox="0 0 32 32" fill="none" xmlns="http://www.w3.org/2000/svg">
    <path d="M25.3333 5.33325H6.66663C5.60576 5.33325 4.58834 5.75468 3.8382 6.50482C3.08805 7.25497 2.66663 8.27239 2.66663 9.33325V22.6666C2.66663 23.7275 3.08805 24.7449 3.8382 25.495C4.58834 26.2452 5.60576 26.6666 6.66663 26.6666H25.3333C26.3942 26.6666 27.4116 26.2452 28.1617 25.495C28.9119 24.7449 29.3333 23.7275 29.3333 22.6666V9.33325C29.3333 8.27239 28.9119 7.25497 28.1617 6.50482C27.4116 5.75468 26.3942 5.33325 25.3333 5.33325ZM25.3333 7.99992L16.6666 13.9599C16.4639 14.0769 16.234 14.1386 16 14.1386C15.7659 14.1386 15.536 14.0769 15.3333 13.9599L6.66663 7.99992H25.3333Z"
          fill="white"/>
</svg>
