<svg width="27" height="33" viewBox="0 0 27 33" fill="none" xmlns="http://www.w3.org/2000/svg">
    <path d="M8.1607 13.627V7.14379C8.1607 4.33 10.3111 2.04078 12.9548 2.04078C15.5978 2.04078 17.7484 4.33 17.7484 7.14379V13.6264C17.7484 14.1901 18.2053 14.647 18.769 14.647C19.333 14.647 19.7896 14.1901 19.7896 13.6264V7.14379C19.7896 3.2046 16.7234 0 12.9546 0C9.18557 0 6.11963 3.20489 6.11963 7.14379V13.6264C6.11963 14.1901 6.57655 14.647 7.14025 14.647C7.70375 14.6473 8.16088 14.1903 8.16088 13.6266L8.1607 13.627Z"
          fill="#14279B"/>
    <path d="M25.3399 28.2882C25.3399 28.2873 25.3249 28.2873 25.3065 28.2882C25.2881 28.2891 24.5849 28.2898 23.7845 28.2898H18.1107C17.3106 28.2898 17.085 28.0905 16.365 27.8465V27.3046V26.7627C17.085 26.519 17.3106 26.3194 18.1107 26.3194H23.7845C24.5847 26.3194 25.2545 26.3199 25.2729 26.3203C25.2914 26.3208 25.3397 25.668 25.3397 24.8679V11.2032C25.3397 10.4031 24.6851 9.74837 23.8849 9.74837L2.44704 9.7486C1.64692 9.7486 0.992232 10.4032 0.992232 11.2034V26.8351C0.992232 27.6352 0.81361 28.9197 0.59516 29.6895L0.0530737 31.6005C-0.165371 32.3702 0.310651 33 1.11076 33H25.0731C25.8732 33 26.3677 32.3654 26.1722 31.5894L25.6959 29.7007C25.5003 28.9248 25.3401 28.2892 25.3401 28.2885L25.3399 28.2882Z"
          fill="#14279B"/>
</svg>
