<svg width="21" height="26" viewBox="0 0 21 26" fill="none" xmlns="http://www.w3.org/2000/svg">
    <path d="M6.17915 0.305662C6.87928 0.094569 7.6306 0.129639 8.30802 0.405033C8.98544 0.680427 9.54811 1.17953 9.90235 1.81926L10.0208 2.05766L11.08 4.41126C11.4014 5.12564 11.5058 5.91875 11.38 6.69196C11.2543 7.46517 10.904 8.18435 10.3728 8.76006L10.16 8.97126L8.49115 10.5281C8.19035 10.8129 8.41595 11.9153 9.50395 13.8001C10.4832 15.4961 11.28 16.2881 11.672 16.3313H11.7408L11.8256 16.3153L15.1056 15.3121C15.5464 15.1769 16.0168 15.1715 16.4606 15.2967C16.9044 15.4218 17.3027 15.6721 17.608 16.0177L17.7536 16.2017L19.9248 19.2097C20.3503 19.7992 20.5623 20.5162 20.526 21.2424C20.4896 21.9686 20.207 22.6607 19.7248 23.2049L19.5296 23.4065L18.6624 24.2289C17.8836 24.9663 16.9095 25.4647 15.8558 25.6646C14.8021 25.8646 13.7131 25.7578 12.7184 25.3569C9.62235 24.1089 6.80955 21.2577 4.25435 16.8321C1.69435 12.3953 0.630353 8.52806 1.10555 5.21606C1.24935 4.21489 1.66162 3.27135 2.29857 2.48566C2.93552 1.69996 3.77338 1.10144 4.72315 0.753662L5.03195 0.651262L6.17915 0.305662Z"
          fill="white"/>
</svg>
