<svg width="35" height="32" viewBox="0 0 35 32" fill="none" xmlns="http://www.w3.org/2000/svg">
    <path d="M30.8321 0C29.7266 0 28.6665 0.444472 27.8847 1.23512C27.1032 2.02609 26.6639 3.09865 26.6639 4.21708C26.6649 5.05837 26.9149 5.8801 27.3814 6.57643L23.5269 10.4787C22.7168 9.89271 21.7462 9.57708 20.7506 9.57574C20.5985 9.57758 20.4464 9.5868 20.2951 9.60314L20.0232 8.57482C20.7128 8.11058 21.1276 7.32857 21.1282 6.49052C21.1284 5.82578 20.8675 5.18816 20.4029 4.71818C19.9383 4.2482 19.3081 3.98413 18.6511 3.98413C17.9938 3.98413 17.3638 4.24813 16.899 4.71818C16.4344 5.18821 16.1735 5.82582 16.1737 6.49052C16.1745 7.1268 16.4144 7.73859 16.8446 8.20257C17.275 8.66628 17.8636 8.94713 18.4909 8.98821L18.7641 10.0192C18.105 10.3229 17.5227 10.7742 17.0609 11.3389L9.57955 6.96866C9.79492 6.40088 9.90611 5.79857 9.9082 5.19052C9.90846 3.86131 9.38658 2.5864 8.45766 1.6463C7.52872 0.706203 6.26858 0.177946 4.95477 0.177946C3.64069 0.177683 2.38028 0.705677 1.45108 1.64576C0.521671 2.58586 -0.000266566 3.86104 1.02135e-07 5.19052C1.02135e-07 6.52 0.522137 7.79464 1.45134 8.73474C2.38055 9.67456 3.64069 10.2023 4.95477 10.2023C6.44251 10.2007 7.85085 9.5228 8.79072 8.35561L16.2728 12.7247C16.0712 13.2656 15.967 13.8387 15.9652 14.4167C15.9665 14.5703 15.9754 14.7237 15.991 14.8762L12.9157 15.7104C12.3753 14.7713 11.3832 14.193 10.3092 14.1914C9.50782 14.1912 8.73962 14.5131 8.17295 15.0859C7.60628 15.659 7.28781 16.4362 7.28781 17.2469C7.28755 18.0576 7.60578 18.8351 8.17248 19.4084C8.73919 19.9817 9.50762 20.3037 10.3092 20.3035C11.1082 20.3035 11.8748 19.9828 12.441 19.4119C13.0069 18.8412 13.3265 18.0666 13.3291 17.258L16.4023 16.4238C16.8796 17.4824 17.7181 18.3313 18.7638 18.8156L17.2463 24.5519C17.1911 24.5477 17.1356 24.5448 17.0804 24.5432C16.103 24.5432 15.166 24.9361 14.4749 25.6351C13.784 26.3343 13.3957 27.2823 13.3957 28.2708C13.3954 29.2599 13.7835 30.2082 14.4746 30.9077C15.1655 31.6069 16.1028 31.9997 17.0804 32C18.0577 32.0003 18.9955 31.6074 19.6867 30.9079C20.3781 30.2087 20.7663 29.2599 20.7661 28.2708C20.7656 27.5879 20.5796 26.9182 20.2283 26.3349C19.8773 25.7513 19.3744 25.2767 18.7749 24.9627L20.2924 19.234C20.4445 19.2493 20.5973 19.2572 20.7502 19.2577C21.6197 19.2559 22.4723 19.0145 23.2164 18.5593L24.1049 19.4583C23.9231 19.8714 23.8288 20.3182 23.8281 20.7706C23.8283 21.6295 24.1658 22.4534 24.7663 23.0607C25.3669 23.668 26.1812 24.0091 27.0302 24.0089C27.8791 24.0087 28.6932 23.6675 29.2934 23.0602C29.8934 22.4529 30.2309 21.6293 30.2312 20.7707C30.2312 19.9115 29.8939 19.0876 29.2937 18.48C28.6934 17.8725 27.8794 17.531 27.0302 17.5308C26.5835 17.5321 26.1421 17.628 25.7343 17.8122L24.8431 16.9108C25.2934 16.1584 25.5325 15.2963 25.5348 14.4168C25.5325 13.4106 25.2202 12.43 24.6413 11.6116L28.4982 7.71202H28.4984C29.1875 8.18284 30.0002 8.43419 30.8318 8.43419C31.9373 8.43419 32.9974 7.98972 33.7792 7.19907C34.5607 6.4081 35 5.33554 35 4.2171C35 3.09867 34.5607 2.02611 33.7792 1.23514C32.9974 0.444439 31.9373 2.03264e-05 30.8318 2.03264e-05L30.8321 0Z"
          fill="#14279B"/>
</svg>
