<svg width="35" height="32" viewBox="0 0 35 32" fill="none" xmlns="http://www.w3.org/2000/svg">
    <path d="M20.0511 9.2395V11.8741C20.0511 13.3377 18.8435 14.5453 17.3799 14.5453C15.9163 14.5453 14.7087 13.3378 14.7087 11.8741V9.2395L7.75623 13.3745L17.38 19.156L27.0037 13.4109L20.0511 9.2395Z"
          fill="#14279B"/>
    <path d="M21.9904 22.5957C22.7222 21.3149 24.3688 20.8759 25.6496 21.6077L27.9915 22.9615V15.1308L18.3678 20.8759V31.9999L25.5399 27.7186L22.9785 26.2183C21.6974 25.5232 21.2584 23.8764 21.9902 22.5958L21.9904 22.5957Z"
          fill="#14279B"/>
    <path d="M6.73127 22.9616L9.07316 21.6078C10.354 20.8392 12.0006 21.315 12.7689 22.5958C13.5007 23.8767 13.0617 25.5233 11.7809 26.2551L9.21947 27.7186L16.3915 31.9999V20.8759L6.7312 15.1308L6.73127 22.9616Z"
          fill="#14279B"/>
    <path d="M14.8557 4.95838L16.356 3.45804V11.9108C16.356 12.4596 16.7951 12.9354 17.3806 12.9354C17.9662 12.9354 18.4052 12.4964 18.4052 11.9108V3.42144L19.9055 4.92179C20.0885 5.1048 20.3446 5.21456 20.6009 5.21456C20.8571 5.21456 21.1131 5.1048 21.2962 4.92179C21.6987 4.51926 21.6987 3.89721 21.2962 3.49469L18.076 0.27452C17.71 -0.0915065 17.015 -0.0915065 16.6489 0.27452L13.4287 3.49469C13.0262 3.89722 13.0262 4.51927 13.4287 4.92179C13.8313 5.32431 14.4533 5.32431 14.8558 4.95829L14.8557 4.95838Z"
          fill="#14279B"/>
    <path d="M5.67021 29.585L3.62111 29.0362L10.9395 24.8282C11.4153 24.5355 11.5981 23.95 11.3056 23.4377C11.0128 22.9619 10.4273 22.7791 9.915 23.0716L2.59657 27.2796L3.14535 25.2305C3.29161 24.6817 2.96233 24.1327 2.45003 23.9864C1.90125 23.8402 1.3522 24.1695 1.20596 24.6818L0.0348855 29.1093C-0.111372 29.6581 0.217898 30.2071 0.730201 30.3533L5.15798 31.5244C5.23124 31.5609 5.34099 31.5609 5.41425 31.5609C5.85328 31.5609 6.2558 31.2682 6.4023 30.8292C6.54831 30.2801 6.21904 29.7313 5.67026 29.5851L5.67021 29.585Z"
          fill="#14279B"/>
    <path d="M34.7241 29.1092L33.5531 24.6814C33.4068 24.1327 32.8578 23.8399 32.309 23.9861C31.7602 24.1324 31.4674 24.6814 31.6137 25.2302L32.1625 27.2793L24.844 23.0713C24.3683 22.7786 23.7462 22.9616 23.4535 23.4373C23.1607 23.9131 23.3437 24.5352 23.8195 24.8279L31.1379 29.0359L29.0888 29.5849C28.5401 29.7312 28.2473 30.2802 28.3935 30.829C28.5033 31.268 28.9058 31.5608 29.3816 31.5608C29.4548 31.5608 29.5646 31.5608 29.6378 31.5243L34.0656 30.3532C34.5411 30.2069 34.8704 29.6579 34.7241 29.1091L34.7241 29.1092Z"
          fill="#14279B"/>
</svg>
