<svg width="21" height="33" viewBox="0 0 21 33" fill="none" xmlns="http://www.w3.org/2000/svg">
    <path d="M8.11859 16.3844L6.34748 19.927L9.00454 21.8458L11.6616 19.927L10.4807 17.5653C11.8092 18.0082 13.1377 18.3032 14.4659 18.3032C16.8276 18.3032 19.0417 17.5653 20.8128 16.5321L18.7464 14.4656L17.2702 4.57584H17.4179C17.7132 4.72348 18.0082 4.87113 18.3034 4.87113C19.3366 4.87113 20.2223 3.98558 20.2223 2.95232C20.2223 1.91882 19.3367 1.03318 18.3034 1.03318C17.2702 1.03318 16.3846 1.91874 16.3846 2.952C16.3846 3.09965 16.3846 3.39494 16.5323 3.54227L16.3846 3.68992L6.64268 2.06613L4.57592 0C3.39502 1.91882 2.80482 3.98518 2.80482 6.34697C2.65717 10.4799 4.87126 14.3177 8.11852 16.3839L8.11859 16.3844ZM17.2698 12.6942L13.2847 8.70897L16.089 5.9046L17.2698 12.6942ZM18.303 2.36231C18.5983 2.36231 18.8933 2.65761 18.8933 2.95258C18.8933 3.24788 18.598 3.54286 18.303 3.54286C18.0077 3.39552 17.8601 3.10022 17.8601 2.80494C17.8601 2.50995 18.0077 2.3623 18.303 2.3623V2.36231ZM15.2034 4.87134L12.2514 7.82334L8.26622 3.83815L15.2034 4.87134Z"
          fill="#14279B"/>
    <path d="M9.15189 23.4695L4.42847 27.0118L9.15189 28.9309L14.023 27.0118L9.15189 23.4695Z" fill="#14279B"/>
    <path d="M10.9235 29.6689L18.3037 32.7685L15.6466 27.7501L10.9235 29.6689Z" fill="#14279B"/>
    <path d="M10.3325 22.7317L14.7606 25.979L12.3989 21.2559L10.3325 22.7317Z" fill="#14279B"/>
    <path d="M0 32.7686L7.38047 29.669L2.50934 27.6025L0 32.7686Z" fill="#14279B"/>
    <path d="M3.39545 25.9784L7.97124 22.7312L5.75716 21.1077L3.39545 25.9784Z" fill="#14279B"/>
</svg>
